# xmcd CD database file
#
# Track frame offsets:
#	150
#	23059
#	43741
#	62509
#	93552
#	115737
#	138977
#	151881
#	175087
#	204629
#	222852
#
# Disc length: 3259 seconds
#
# Revision: 0
# Processed by: cddbd v1.5.2PL0 Copyright (c) Steve Scherf et al.
# Submitted via: CDex 1.77
#
DISCID=910cb90b
DTITLE=Colin Vallon Patrice Moret Samuel Rohrer - Rruga
DYEAR=2011
DGENRE=Jazz
TTITLE0=Telepathy
TTITLE1=Rruga
TTITLE2=Home
TTITLE3=Polygonia
TTITLE4=Eyjafjallajokull
TTITLE5=Meral
TTITLE6=Iskar
TTITLE7=Noreia
TTITLE8=Rruga, var.
TTITLE9=Fjord
TTITLE10=Epilog
EXTD=YEAR: 2011
EXTT0=
EXTT1=
EXTT2=
EXTT3=
EXTT4=
EXTT5=
EXTT6=
EXTT7=
EXTT8=
EXTT9=
EXTT10=
PLAYORDER=
